<svg width="494" height="497" viewBox="0 0 494 497" fill="none" xmlns="http://www.w3.org/2000/svg">
<rect x="0.00012207" y="3" width="494" height="494" rx="100" fill="#2973D4"/>
<path fill-rule="evenodd" clip-rule="evenodd" d="M352.916 97.2198C353.208 97.5505 353.45 98.029 353.612 98.4006C353.702 98.6051 353.774 98.7911 353.823 98.9259C353.848 98.9933 353.867 99.0489 353.881 99.0874C353.887 99.1064 353.892 99.1218 353.896 99.1323C353.896 99.1351 353.898 99.1377 353.899 99.1398C353.9 99.1427 353.9 99.146 353.901 99.1489C354.776 101.514 355.814 106.004 354.305 112.377C352.795 118.759 348.737 127.004 339.457 136.879L339.447 136.89C337.8 138.518 326.178 150 314.968 161.075C309.362 166.613 303.86 172.049 299.759 176.101C297.708 178.126 296.008 179.806 294.82 180.98C294.226 181.566 293.761 182.026 293.443 182.34C293.305 182.477 293.195 182.586 293.114 182.665L324.197 303.107L324.198 303.114L324.198 303.116C324.198 303.117 324.199 303.118 324.199 303.12C324.2 303.123 324.202 303.129 324.203 303.135C324.206 303.147 324.21 303.165 324.215 303.187C324.225 303.232 324.238 303.298 324.255 303.383C324.288 303.552 324.33 303.795 324.371 304.097C324.454 304.701 324.53 305.543 324.507 306.495C324.46 308.391 324.015 310.784 322.364 312.596C322.151 312.83 316.09 319.175 312.861 322.399C312.416 322.842 312.026 323.192 311.67 323.435C311.316 323.677 310.964 323.837 310.603 323.853C310.226 323.869 309.899 323.726 309.607 323.484C309.324 323.25 309.06 322.91 308.79 322.498L308.783 322.489L308.779 322.481C308.433 321.881 293.87 296.77 279.394 271.808C272.157 259.328 264.94 246.885 259.534 237.562C256.83 232.9 254.579 229.019 253.004 226.303C252.217 224.945 251.598 223.878 251.177 223.151C251.007 222.858 250.869 222.621 250.765 222.441L208.384 259.692C208.977 266.885 209.747 272.623 210.505 278.209C211.271 283.844 212.025 289.328 212.568 295.982C212.63 296.745 212.747 297.894 212.692 299.007C212.639 300.101 212.417 301.274 211.707 302.01L211.701 302.016C211.697 302.02 211.691 302.026 211.683 302.035C211.667 302.052 211.642 302.078 211.61 302.111C211.546 302.178 211.452 302.276 211.331 302.401C211.091 302.651 210.746 303.011 210.326 303.444C209.487 304.312 208.351 305.48 207.165 306.681C205.979 307.882 204.741 309.117 203.698 310.119C202.669 311.108 201.796 311.903 201.357 312.19C200.9 312.488 200.446 312.621 199.999 312.576C199.554 312.532 199.167 312.318 198.831 312.024C198.179 311.451 197.632 310.491 197.124 309.508L197.124 309.507L177.974 275.499C177.965 275.504 177.956 275.51 177.947 275.516C177.71 275.68 177.37 275.916 176.961 276.199C176.142 276.766 175.043 277.526 173.924 278.297C172.806 279.067 171.666 279.85 170.766 280.461C169.88 281.062 169.197 281.519 169.014 281.617C165.74 283.382 162.569 282.47 161.314 281.127C160.023 279.819 159.242 276.614 161.138 273.414C161.244 273.235 161.727 272.571 162.365 271.71C163.012 270.836 163.839 269.729 164.655 268.642C165.47 267.556 166.274 266.489 166.874 265.694C167.174 265.296 167.423 264.966 167.597 264.736C167.603 264.727 167.609 264.719 167.616 264.711L134.414 244.193L134.413 244.193C133.451 243.646 132.514 243.06 131.968 242.385C131.688 242.038 131.49 241.642 131.464 241.196C131.438 240.747 131.588 240.299 131.906 239.854C132.21 239.427 133.04 238.588 134.07 237.599C135.113 236.598 136.398 235.411 137.645 234.276C138.894 233.139 140.108 232.052 141.008 231.249C141.459 230.847 141.831 230.516 142.091 230.286C142.221 230.171 142.323 230.081 142.392 230.02C142.427 229.989 142.454 229.965 142.472 229.95C142.481 229.942 142.487 229.936 142.491 229.932C142.494 229.93 142.496 229.929 142.497 229.928L142.498 229.927C143.261 229.248 144.443 229.074 145.538 229.065C146.652 229.055 147.796 229.219 148.555 229.312C155.182 230.125 160.63 231.102 166.23 232.096C171.78 233.081 177.482 234.083 184.645 234.967L223.588 194.136C223.413 194.025 223.182 193.878 222.896 193.696C222.187 193.245 221.146 192.584 219.821 191.742C217.171 190.058 213.385 187.651 208.837 184.76C199.742 178.979 187.602 171.263 175.426 163.524C151.074 148.045 126.576 132.474 125.991 132.103L125.982 132.098L125.973 132.091C125.573 131.805 125.244 131.527 125.021 131.235C124.791 130.933 124.662 130.6 124.694 130.225C124.724 129.865 124.899 129.519 125.155 129.176C125.412 128.83 125.776 128.453 126.237 128.028C129.59 124.932 136.177 119.134 136.419 118.931C138.296 117.355 140.707 117.008 142.602 117.038C143.555 117.053 144.393 117.164 144.993 117.271C145.293 117.325 145.535 117.377 145.702 117.417C145.785 117.436 145.851 117.453 145.896 117.465C145.918 117.47 145.936 117.475 145.948 117.478C145.954 117.48 145.959 117.482 145.962 117.482C145.963 117.483 145.965 117.484 145.966 117.484L145.968 117.484L145.968 117.485L145.975 117.486L265.054 153.439C265.136 153.362 265.25 153.257 265.392 153.124C265.718 152.82 266.197 152.373 266.807 151.804C268.028 150.665 269.775 149.034 271.883 147.068C276.098 143.134 281.753 137.857 287.514 132.481C299.036 121.73 310.981 110.585 312.675 109.006L312.686 108.997C322.93 100.126 331.333 96.4066 337.772 95.1567C344.2 93.9087 348.645 95.1271 350.972 96.098L350.981 96.1013C350.983 96.1021 350.986 96.1036 350.989 96.1047C350.999 96.1086 351.014 96.1142 351.033 96.1215C351.071 96.1363 351.126 96.1578 351.192 96.1853C351.325 96.2402 351.507 96.3196 351.708 96.4172C352.073 96.5946 352.541 96.8556 352.86 97.1613L352.862 97.1592C352.871 97.1689 352.88 97.1795 352.889 97.1895C352.899 97.1991 352.909 97.208 352.918 97.2177L352.916 97.2198ZM352.335 97.7215C352.114 97.5065 351.736 97.2861 351.372 97.1087C351.188 97.0195 351.02 96.9462 350.898 96.8957C350.837 96.8705 350.787 96.8511 350.754 96.838C350.737 96.8316 350.724 96.8266 350.716 96.8235L350.697 96.8167L350.689 96.8128C348.485 95.8909 344.19 94.6935 337.918 95.9111C331.642 97.1295 323.359 100.771 313.193 109.573C311.527 111.127 300.205 121.691 289.001 132.145C288.68 132.445 288.359 132.744 288.038 133.044C282.277 138.419 276.621 143.697 272.406 147.63C270.299 149.596 268.551 151.227 267.331 152.366C266.721 152.935 266.242 153.382 265.916 153.686C265.754 153.838 265.629 153.955 265.545 154.033C265.503 154.073 265.471 154.102 265.449 154.122C265.439 154.132 265.43 154.14 265.425 154.145L265.418 154.151L265.154 153.871L265.417 154.152L265.255 154.303L265.044 154.239L145.757 118.223C145.757 118.223 145.756 118.224 145.755 118.223C145.753 118.223 145.75 118.222 145.746 118.221C145.736 118.218 145.721 118.214 145.702 118.209C145.662 118.199 145.602 118.184 145.525 118.166C145.37 118.129 145.142 118.078 144.857 118.028C144.287 117.926 143.491 117.821 142.589 117.806C140.774 117.777 138.585 118.116 136.913 119.52C136.684 119.713 130.107 125.503 126.76 128.593C126.31 129.009 125.985 129.347 125.77 129.635C125.554 129.925 125.473 130.133 125.46 130.289C125.448 130.43 125.488 130.579 125.633 130.769C125.784 130.968 126.035 131.191 126.413 131.461C127.244 131.988 151.615 147.477 175.839 162.875C188.015 170.614 200.154 178.33 209.25 184.111L220.234 191.093C221.558 191.935 222.599 192.597 223.308 193.048C223.663 193.273 223.936 193.446 224.119 193.562C224.21 193.621 224.28 193.665 224.327 193.694C224.35 193.709 224.367 193.721 224.379 193.728C224.385 193.732 224.389 193.735 224.392 193.736C224.393 193.737 224.395 193.738 224.395 193.739C224.395 193.739 224.391 193.749 224.295 193.9C224.268 193.943 224.234 193.996 224.191 194.064L224.295 193.9L224.397 193.739L224.792 193.991L185.068 235.638L184.935 235.778L184.744 235.754C177.468 234.862 171.696 233.846 166.095 232.852C165.968 232.829 165.841 232.806 165.713 232.784C160.246 231.813 154.915 230.867 148.462 230.075C147.679 229.979 146.596 229.825 145.544 229.834C144.472 229.843 143.547 230.023 143.008 230.502L143.007 230.503L143.001 230.509C142.996 230.513 142.989 230.519 142.98 230.527C142.962 230.542 142.936 230.565 142.902 230.596C142.832 230.657 142.731 230.748 142.601 230.862C142.342 231.092 141.97 231.422 141.52 231.823C140.621 232.625 139.409 233.71 138.164 234.844C136.918 235.978 135.639 237.159 134.603 238.154C133.553 239.161 132.786 239.946 132.532 240.301C132.291 240.638 132.219 240.916 132.232 241.151C132.246 241.389 132.352 241.636 132.567 241.902C133.01 242.45 133.823 242.974 134.806 243.532L134.812 243.535L134.818 243.539L168.739 264.501L168.484 264.839L168.482 264.84C168.482 264.841 168.481 264.843 168.48 264.845C168.476 264.849 168.472 264.855 168.466 264.862C168.454 264.878 168.436 264.902 168.413 264.933C168.366 264.994 168.298 265.085 168.211 265.2C168.037 265.43 167.788 265.759 167.488 266.157C166.889 266.952 166.085 268.018 165.27 269.104C164.455 270.19 163.628 271.295 162.982 272.167C162.328 273.052 161.88 273.671 161.799 273.806C160.073 276.72 160.834 279.505 161.83 280.556L161.832 280.556L161.906 280.634C162.915 281.672 165.667 282.547 168.649 280.94C168.788 280.865 169.424 280.443 170.335 279.825C171.232 279.215 172.37 278.434 173.488 277.664C174.606 276.894 175.704 276.133 176.523 275.566C176.932 275.283 177.272 275.048 177.509 274.884C177.628 274.802 177.721 274.737 177.784 274.693C177.815 274.671 177.84 274.654 177.857 274.643C177.864 274.637 177.87 274.633 177.874 274.63C177.876 274.629 177.878 274.628 177.879 274.627L177.881 274.626L178.228 274.385L197.794 309.13L197.797 309.136L197.801 309.142C198.319 310.147 198.809 310.981 199.339 311.446C199.595 311.671 199.838 311.787 200.075 311.811C200.309 311.834 200.59 311.772 200.937 311.546C201.302 311.307 202.117 310.572 203.166 309.564C204.202 308.569 205.434 307.339 206.618 306.14C207.802 304.942 208.935 303.776 209.773 302.909C210.192 302.476 210.537 302.119 210.777 301.869C210.897 301.744 210.991 301.645 211.055 301.579C211.087 301.546 211.111 301.52 211.127 301.503C211.135 301.495 211.142 301.488 211.146 301.484C211.148 301.482 211.15 301.48 211.151 301.479L211.152 301.478L211.43 301.743L211.153 301.478L211.153 301.476C211.654 300.958 211.872 300.04 211.924 298.97C211.976 297.919 211.865 296.83 211.801 296.044C211.272 289.556 210.542 284.186 209.794 278.677C209.777 278.556 209.761 278.434 209.744 278.313C208.979 272.676 208.198 266.867 207.602 259.562L207.586 259.37L207.731 259.242L250.959 221.245L251.195 221.65L251.036 221.742L250.862 221.843C250.935 221.8 250.992 221.767 251.036 221.742C251.191 221.652 251.195 221.651 251.195 221.651C251.196 221.652 251.197 221.653 251.197 221.655C251.199 221.658 251.202 221.662 251.205 221.668C251.212 221.68 251.223 221.698 251.237 221.722C251.265 221.77 251.306 221.841 251.36 221.935C251.469 222.122 251.631 222.402 251.841 222.765C252.263 223.493 252.882 224.559 253.669 225.917L260.199 237.176C265.606 246.499 272.822 258.942 280.06 271.423C294.46 296.254 308.946 321.235 309.438 322.085C309.693 322.473 309.905 322.733 310.097 322.893C310.281 323.045 310.428 323.091 310.57 323.085C310.727 323.078 310.938 323.005 311.236 322.801C311.533 322.598 311.884 322.288 312.317 321.855C315.541 318.636 321.594 312.3 321.796 312.078C323.266 310.465 323.694 308.292 323.738 306.477C323.761 305.575 323.688 304.775 323.61 304.202C323.571 303.915 323.53 303.686 323.499 303.529C323.484 303.451 323.472 303.39 323.463 303.351C323.459 303.331 323.455 303.316 323.453 303.306C323.452 303.302 323.451 303.298 323.45 303.296C323.45 303.295 323.451 303.294 323.45 303.294L292.259 182.428L292.417 182.273L292.686 182.546L292.418 182.272L292.425 182.265C292.43 182.26 292.438 182.252 292.448 182.242C292.469 182.222 292.5 182.19 292.541 182.15C292.623 182.069 292.744 181.949 292.903 181.793C293.22 181.48 293.686 181.019 294.279 180.433C295.467 179.26 297.167 177.58 299.218 175.555C303.319 171.503 308.822 166.066 314.428 160.529C314.74 160.22 315.052 159.912 315.365 159.603C326.265 148.834 337.281 137.951 338.901 136.349C348.11 126.549 352.085 118.421 353.558 112.2C355.029 105.982 354.007 101.642 353.175 99.4023L353.172 99.3948L353.17 99.3868L353.169 99.3847C353.168 99.3827 353.168 99.3795 353.166 99.3756C353.163 99.367 353.159 99.3535 353.153 99.3365C353.141 99.3025 353.124 99.2522 353.101 99.1905C353.055 99.0664 352.99 98.8954 352.908 98.7086C352.746 98.337 352.541 97.9504 352.335 97.7215Z" fill="white"/>
<path d="M352.335 97.7215C352.114 97.5065 351.736 97.2861 351.372 97.1087C351.188 97.0195 351.02 96.9462 350.898 96.8957C350.837 96.8705 350.787 96.8511 350.754 96.838C350.737 96.8316 350.724 96.8266 350.716 96.8235L350.697 96.8167L350.689 96.8128C348.485 95.8909 344.19 94.6935 337.918 95.9111C331.642 97.1295 323.359 100.771 313.193 109.573C311.527 111.127 300.205 121.691 289.001 132.145L288.038 133.044L272.406 147.63C270.299 149.596 268.551 151.227 267.331 152.366C266.721 152.935 266.242 153.382 265.916 153.686C265.754 153.838 265.629 153.955 265.545 154.033C265.503 154.073 265.471 154.102 265.449 154.122C265.439 154.132 265.43 154.14 265.425 154.145L265.418 154.151L265.154 153.871L265.417 154.152L265.255 154.303L265.044 154.239L145.757 118.223C145.757 118.223 145.756 118.224 145.755 118.223C145.753 118.223 145.75 118.222 145.746 118.221C145.736 118.218 145.721 118.214 145.702 118.209C145.662 118.199 145.602 118.184 145.525 118.166C145.37 118.129 145.142 118.078 144.857 118.028C144.287 117.926 143.491 117.821 142.589 117.806C140.774 117.777 138.585 118.116 136.913 119.52C136.684 119.713 130.107 125.503 126.76 128.593C126.31 129.009 125.985 129.347 125.77 129.635C125.554 129.925 125.473 130.133 125.46 130.289C125.448 130.43 125.488 130.579 125.633 130.769C125.784 130.968 126.035 131.191 126.413 131.461C127.244 131.988 151.615 147.477 175.839 162.875L209.25 184.111L220.234 191.093L223.308 193.048C223.663 193.273 223.936 193.446 224.119 193.562C224.21 193.621 224.28 193.665 224.327 193.694C224.35 193.709 224.367 193.721 224.379 193.728L224.392 193.736L224.395 193.739C224.395 193.739 224.391 193.749 224.295 193.9L224.397 193.739L224.792 193.991L185.068 235.638L184.935 235.778L184.744 235.754C177.468 234.862 171.696 233.846 166.095 232.852L165.713 232.784C160.246 231.813 154.915 230.867 148.462 230.075C147.679 229.979 146.596 229.825 145.544 229.834C144.472 229.843 143.547 230.023 143.008 230.502L143.007 230.503L143.001 230.509C142.996 230.513 142.989 230.519 142.98 230.527L142.902 230.596C142.832 230.657 142.731 230.748 142.601 230.862C142.342 231.092 141.97 231.422 141.52 231.823C140.621 232.625 139.409 233.71 138.164 234.844C136.918 235.978 135.639 237.159 134.603 238.154C133.553 239.161 132.786 239.946 132.532 240.301C132.291 240.638 132.219 240.916 132.232 241.151C132.246 241.389 132.352 241.636 132.567 241.902C133.01 242.45 133.823 242.974 134.806 243.532L134.812 243.535L134.818 243.539L168.739 264.501L168.484 264.839L168.482 264.84C168.482 264.841 168.481 264.843 168.48 264.845C168.476 264.849 168.472 264.855 168.466 264.862C168.454 264.878 168.436 264.902 168.413 264.933C168.366 264.994 168.298 265.085 168.211 265.2C168.037 265.43 167.788 265.759 167.488 266.157C166.889 266.952 166.085 268.018 165.27 269.104C164.455 270.19 163.628 271.295 162.982 272.167C162.328 273.052 161.88 273.671 161.799 273.806C160.073 276.72 160.834 279.505 161.83 280.556L161.832 280.556L161.906 280.634C162.915 281.672 165.667 282.547 168.649 280.94C168.788 280.865 169.424 280.443 170.335 279.825C171.232 279.215 172.37 278.434 173.488 277.664C174.606 276.894 175.704 276.133 176.523 275.566C176.932 275.283 177.272 275.048 177.509 274.884C177.628 274.802 177.721 274.737 177.784 274.693C177.815 274.671 177.84 274.654 177.857 274.643C177.864 274.637 177.87 274.633 177.874 274.63C177.876 274.629 177.878 274.628 177.879 274.627L177.881 274.626L178.228 274.385L197.794 309.13L197.797 309.136L197.801 309.142C198.319 310.147 198.809 310.981 199.339 311.446C199.595 311.671 199.838 311.787 200.075 311.811C200.309 311.834 200.59 311.772 200.937 311.546C201.302 311.307 202.117 310.572 203.166 309.564C204.202 308.569 205.434 307.339 206.618 306.14C207.802 304.942 208.935 303.776 209.773 302.909C210.192 302.476 210.537 302.119 210.777 301.869C210.897 301.744 210.991 301.645 211.055 301.579L211.127 301.503C211.135 301.495 211.142 301.488 211.146 301.484C211.148 301.482 211.15 301.48 211.151 301.479L211.152 301.478L211.43 301.743L211.153 301.478L211.153 301.476C211.654 300.958 211.872 300.04 211.924 298.97C211.976 297.919 211.865 296.83 211.801 296.044C211.272 289.556 210.542 284.186 209.794 278.677L209.744 278.313C208.979 272.676 208.198 266.867 207.602 259.562L207.586 259.37L207.731 259.242L250.959 221.245L251.195 221.65L251.036 221.742C251.191 221.652 251.195 221.651 251.195 221.651L251.197 221.655L251.205 221.668C251.212 221.68 251.223 221.698 251.237 221.722C251.265 221.77 251.306 221.841 251.36 221.935C251.469 222.122 251.631 222.402 251.841 222.765L253.669 225.917L260.199 237.176L280.06 271.423C294.46 296.254 308.946 321.235 309.438 322.085C309.693 322.473 309.905 322.733 310.097 322.893C310.281 323.045 310.428 323.091 310.57 323.085C310.727 323.078 310.938 323.005 311.236 322.801C311.533 322.598 311.884 322.288 312.317 321.855C315.541 318.636 321.594 312.3 321.796 312.078C323.266 310.465 323.694 308.292 323.738 306.477C323.761 305.575 323.688 304.775 323.61 304.202C323.571 303.915 323.53 303.686 323.499 303.529C323.484 303.451 323.472 303.39 323.463 303.351C323.459 303.331 323.455 303.316 323.453 303.306L323.45 303.296C323.45 303.295 323.451 303.294 323.45 303.294L292.259 182.428L292.417 182.273L292.686 182.546L292.418 182.272L292.425 182.265C292.43 182.26 292.438 182.252 292.448 182.242C292.469 182.222 292.5 182.19 292.541 182.15C292.623 182.069 292.744 181.949 292.903 181.793C293.22 181.48 293.686 181.019 294.279 180.433C295.467 179.26 297.167 177.58 299.218 175.555L314.428 160.529L315.365 159.603C326.265 148.834 337.281 137.951 338.901 136.349C348.11 126.549 352.085 118.421 353.558 112.2C355.029 105.982 354.007 101.642 353.175 99.4023L353.172 99.3948L353.17 99.3868L353.169 99.3847C353.168 99.3827 353.168 99.3795 353.166 99.3756C353.163 99.367 353.159 99.3535 353.153 99.3365C353.141 99.3025 353.124 99.2522 353.101 99.1905C353.055 99.0664 352.99 98.8954 352.908 98.7086C352.746 98.337 352.541 97.9504 352.335 97.7215Z" fill="white"/>
<path d="M288.038 133.044C282.277 138.419 276.621 143.697 272.406 147.63M288.038 133.044L289.001 132.145M288.038 133.044L272.406 147.63M288.038 133.044C288.359 132.744 288.68 132.445 289.001 132.145M272.406 147.63C270.299 149.596 268.551 151.227 267.331 152.366C266.721 152.935 266.242 153.382 265.916 153.686C265.754 153.838 265.629 153.955 265.545 154.033C265.503 154.073 265.471 154.102 265.449 154.122C265.439 154.132 265.43 154.14 265.425 154.145L265.418 154.151L265.154 153.871L265.417 154.152L265.255 154.303L265.044 154.239L145.757 118.223C145.757 118.223 145.756 118.224 145.755 118.223C145.753 118.223 145.75 118.222 145.746 118.221C145.736 118.218 145.721 118.214 145.702 118.209C145.662 118.199 145.602 118.184 145.525 118.166C145.37 118.129 145.142 118.078 144.857 118.028C144.287 117.926 143.491 117.821 142.589 117.806C140.774 117.777 138.585 118.116 136.913 119.52C136.684 119.713 130.107 125.503 126.76 128.593C126.31 129.009 125.985 129.347 125.77 129.635C125.554 129.925 125.473 130.133 125.46 130.289C125.448 130.43 125.488 130.579 125.633 130.769C125.784 130.968 126.035 131.191 126.413 131.461C127.244 131.988 151.615 147.477 175.839 162.875M175.839 162.875C188.015 170.614 200.154 178.33 209.25 184.111M175.839 162.875L209.25 184.111M209.25 184.111L220.234 191.093M220.234 191.093C221.558 191.935 222.599 192.597 223.308 193.048M220.234 191.093L223.308 193.048M223.308 193.048C223.663 193.273 223.936 193.446 224.119 193.562C224.21 193.621 224.28 193.665 224.327 193.694C224.35 193.709 224.367 193.721 224.379 193.728M224.379 193.728C224.385 193.732 224.389 193.735 224.392 193.736M224.379 193.728L224.392 193.736M224.392 193.736C224.393 193.737 224.395 193.738 224.395 193.739M224.392 193.736L224.395 193.739M224.395 193.739C224.395 193.739 224.391 193.749 224.295 193.9M166.095 232.852C171.696 233.846 177.468 234.862 184.744 235.754L184.935 235.778L185.068 235.638L224.792 193.991L224.397 193.739L224.295 193.9M166.095 232.852L165.713 232.784M166.095 232.852C165.968 232.829 165.841 232.806 165.713 232.784M143.007 230.503L143.008 230.502C143.547 230.023 144.472 229.843 145.544 229.834C146.596 229.825 147.679 229.979 148.462 230.075C154.915 230.867 160.246 231.813 165.713 232.784M143.007 230.503L142.753 230.214M143.007 230.503L143.001 230.509C142.996 230.513 142.989 230.519 142.98 230.527M142.98 230.527C142.962 230.542 142.936 230.565 142.902 230.596M142.98 230.527L142.902 230.596M142.902 230.596C142.832 230.657 142.731 230.748 142.601 230.862C142.342 231.092 141.97 231.422 141.52 231.823C140.621 232.625 139.409 233.71 138.164 234.844C136.918 235.978 135.639 237.159 134.603 238.154C133.553 239.161 132.786 239.946 132.532 240.301C132.291 240.638 132.219 240.916 132.232 241.151C132.246 241.389 132.352 241.636 132.567 241.902C133.01 242.45 133.823 242.974 134.806 243.532L134.812 243.535L134.818 243.539L168.739 264.501L168.484 264.839L168.482 264.84C168.482 264.841 168.481 264.843 168.48 264.845C168.476 264.849 168.472 264.855 168.466 264.862C168.454 264.878 168.436 264.902 168.413 264.933C168.366 264.994 168.298 265.085 168.211 265.2C168.037 265.43 167.788 265.759 167.488 266.157C166.889 266.952 166.085 268.018 165.27 269.104C164.455 270.19 163.628 271.295 162.982 272.167C162.328 273.052 161.88 273.671 161.799 273.806C160.073 276.72 160.834 279.505 161.83 280.556L161.832 280.556L161.906 280.634C162.915 281.672 165.667 282.547 168.649 280.94C168.788 280.865 169.424 280.443 170.335 279.825C171.232 279.215 172.37 278.434 173.488 277.664C174.606 276.894 175.704 276.133 176.523 275.566C176.932 275.283 177.272 275.048 177.509 274.884C177.628 274.802 177.721 274.737 177.784 274.693C177.815 274.671 177.84 274.654 177.857 274.643C177.864 274.637 177.87 274.633 177.874 274.63C177.876 274.629 177.878 274.628 177.879 274.627L177.881 274.626L178.228 274.385L197.794 309.13L197.797 309.136L197.801 309.142C198.319 310.147 198.809 310.981 199.339 311.446C199.595 311.671 199.838 311.787 200.075 311.811C200.309 311.834 200.59 311.772 200.937 311.546C201.302 311.307 202.117 310.572 203.166 309.564C204.202 308.569 205.434 307.339 206.618 306.14C207.802 304.942 208.935 303.776 209.773 302.909C210.192 302.476 210.537 302.119 210.777 301.869C210.897 301.744 210.991 301.645 211.055 301.579M211.055 301.579C211.087 301.546 211.111 301.52 211.127 301.503M211.055 301.579L211.127 301.503M211.127 301.503C211.135 301.495 211.142 301.488 211.146 301.484C211.148 301.482 211.15 301.48 211.151 301.479L211.152 301.478L211.43 301.743L211.153 301.478L211.153 301.476C211.654 300.958 211.872 300.04 211.924 298.97C211.976 297.919 211.865 296.83 211.801 296.044C211.272 289.556 210.542 284.186 209.794 278.677M209.744 278.313C208.979 272.676 208.198 266.867 207.602 259.562L207.586 259.37L207.731 259.242L250.959 221.245L251.195 221.65L251.036 221.742M209.744 278.313L209.794 278.677M209.744 278.313C209.761 278.434 209.777 278.556 209.794 278.677M251.195 221.651C251.196 221.652 251.197 221.653 251.197 221.655M251.195 221.651C251.195 221.651 251.191 221.652 251.036 221.742M251.195 221.651L251.197 221.655M251.197 221.655C251.199 221.658 251.202 221.662 251.205 221.668M251.197 221.655L251.205 221.668M251.205 221.668C251.212 221.68 251.223 221.698 251.237 221.722C251.265 221.77 251.306 221.841 251.36 221.935C251.469 222.122 251.631 222.402 251.841 222.765M251.841 222.765C252.263 223.493 252.882 224.559 253.669 225.917M251.841 222.765L253.669 225.917M253.669 225.917L260.199 237.176M260.199 237.176C265.606 246.499 272.822 258.942 280.06 271.423M260.199 237.176L280.06 271.423M280.06 271.423C294.46 296.254 308.946 321.235 309.438 322.085C309.693 322.473 309.905 322.733 310.097 322.893C310.281 323.045 310.428 323.091 310.57 323.085C310.727 323.078 310.938 323.005 311.236 322.801C311.533 322.598 311.884 322.288 312.317 321.855C315.541 318.636 321.594 312.3 321.796 312.078C323.266 310.465 323.694 308.292 323.738 306.477C323.761 305.575 323.688 304.775 323.61 304.202C323.571 303.915 323.53 303.686 323.499 303.529C323.484 303.451 323.472 303.39 323.463 303.351C323.459 303.331 323.455 303.316 323.453 303.306M323.453 303.306C323.452 303.302 323.451 303.298 323.45 303.296M323.453 303.306L323.45 303.296M323.45 303.296C323.45 303.295 323.451 303.294 323.45 303.294L292.259 182.428L292.417 182.273L292.686 182.546L292.418 182.272L292.425 182.265C292.43 182.26 292.438 182.252 292.448 182.242C292.469 182.222 292.5 182.19 292.541 182.15C292.623 182.069 292.744 181.949 292.903 181.793C293.22 181.48 293.686 181.019 294.279 180.433C295.467 179.26 297.167 177.58 299.218 175.555M299.218 175.555C303.319 171.503 308.822 166.066 314.428 160.529M299.218 175.555L314.428 160.529M314.428 160.529L315.365 159.603M314.428 160.529C314.74 160.22 315.052 159.912 315.365 159.603M289.001 132.145C300.205 121.691 311.527 111.127 313.193 109.573C323.359 100.771 331.642 97.1295 337.918 95.9111C344.19 94.6935 348.485 95.8909 350.689 96.8128L350.697 96.8167L350.716 96.8235C350.724 96.8266 350.737 96.8316 350.754 96.838C350.787 96.8511 350.837 96.8705 350.898 96.8957C351.02 96.9462 351.188 97.0195 351.372 97.1087C351.736 97.2861 352.114 97.5065 352.335 97.7215C352.541 97.9504 352.746 98.337 352.908 98.7086C352.99 98.8954 353.055 99.0664 353.101 99.1905C353.124 99.2522 353.141 99.3025 353.153 99.3365C353.159 99.3535 353.163 99.367 353.166 99.3756C353.168 99.3795 353.168 99.3827 353.169 99.3847L353.17 99.3868L353.172 99.3948L353.175 99.4023C354.007 101.642 355.029 105.982 353.558 112.2C352.085 118.421 348.11 126.549 338.901 136.349C337.281 137.951 326.265 148.834 315.365 159.603M224.295 193.9L224.191 194.064C224.234 193.996 224.268 193.943 224.295 193.9ZM251.036 221.742C250.992 221.767 250.935 221.8 250.862 221.843L251.036 221.742ZM352.916 97.2198C353.208 97.5505 353.45 98.029 353.612 98.4006C353.702 98.6051 353.774 98.7911 353.823 98.9259C353.848 98.9933 353.867 99.0489 353.881 99.0874C353.887 99.1064 353.892 99.1218 353.896 99.1323C353.896 99.1351 353.898 99.1377 353.899 99.1398C353.9 99.1427 353.9 99.146 353.901 99.1489C354.776 101.514 355.814 106.004 354.305 112.377C352.795 118.759 348.737 127.004 339.457 136.879L339.447 136.89C337.8 138.518 326.178 150 314.968 161.075C309.362 166.613 303.86 172.049 299.759 176.101C297.708 178.126 296.008 179.806 294.82 180.98C294.226 181.566 293.761 182.026 293.443 182.34C293.305 182.477 293.195 182.586 293.114 182.665L324.197 303.107L324.198 303.114L324.198 303.116C324.198 303.117 324.199 303.118 324.199 303.12C324.2 303.123 324.202 303.129 324.203 303.135C324.206 303.147 324.21 303.165 324.215 303.187C324.225 303.232 324.238 303.298 324.255 303.383C324.288 303.552 324.33 303.795 324.371 304.097C324.454 304.701 324.53 305.543 324.507 306.495C324.46 308.391 324.015 310.784 322.364 312.596C322.151 312.83 316.09 319.175 312.861 322.399C312.416 322.842 312.026 323.192 311.67 323.435C311.316 323.677 310.964 323.837 310.603 323.853C310.226 323.869 309.899 323.726 309.607 323.484C309.324 323.25 309.06 322.91 308.79 322.498L308.783 322.489L308.779 322.481C308.433 321.881 293.87 296.77 279.394 271.808C272.157 259.328 264.94 246.885 259.534 237.562C256.83 232.9 254.579 229.019 253.004 226.303C252.217 224.945 251.598 223.878 251.177 223.151C251.007 222.858 250.869 222.621 250.765 222.441L208.384 259.692C208.977 266.885 209.747 272.623 210.505 278.209C211.271 283.844 212.025 289.328 212.568 295.982C212.63 296.745 212.747 297.894 212.692 299.007C212.639 300.101 212.417 301.274 211.707 302.01L211.701 302.016C211.697 302.02 211.691 302.026 211.683 302.035C211.667 302.052 211.642 302.078 211.61 302.111C211.546 302.178 211.452 302.276 211.331 302.401C211.091 302.651 210.746 303.011 210.326 303.444C209.487 304.312 208.351 305.48 207.165 306.681C205.979 307.882 204.741 309.117 203.698 310.119C202.669 311.108 201.796 311.903 201.357 312.19C200.9 312.488 200.446 312.621 199.999 312.576C199.554 312.532 199.167 312.318 198.831 312.024C198.179 311.451 197.632 310.491 197.124 309.508L197.124 309.507L177.974 275.499C177.965 275.504 177.956 275.51 177.947 275.516C177.71 275.68 177.37 275.916 176.961 276.199C176.142 276.766 175.043 277.526 173.924 278.297C172.806 279.067 171.666 279.85 170.766 280.461C169.88 281.062 169.197 281.519 169.014 281.617C165.74 283.382 162.569 282.47 161.314 281.127C160.023 279.819 159.242 276.614 161.138 273.414C161.244 273.235 161.727 272.571 162.365 271.71C163.012 270.836 163.839 269.729 164.655 268.642C165.47 267.556 166.274 266.489 166.874 265.694C167.174 265.296 167.423 264.966 167.597 264.736C167.603 264.727 167.609 264.719 167.616 264.711L134.414 244.193L134.413 244.193C133.451 243.646 132.514 243.06 131.968 242.385C131.688 242.038 131.49 241.642 131.464 241.196C131.438 240.747 131.588 240.299 131.906 239.854C132.21 239.427 133.04 238.588 134.07 237.599C135.113 236.598 136.398 235.411 137.645 234.276C138.894 233.139 140.108 232.052 141.008 231.249C141.459 230.847 141.831 230.516 142.091 230.286C142.221 230.171 142.323 230.081 142.392 230.02C142.427 229.989 142.454 229.965 142.472 229.95C142.481 229.942 142.487 229.936 142.491 229.932C142.494 229.93 142.496 229.929 142.497 229.928L142.498 229.927C143.261 229.248 144.443 229.074 145.538 229.065C146.652 229.055 147.796 229.219 148.555 229.312C155.182 230.125 160.63 231.102 166.23 232.096C171.78 233.081 177.482 234.083 184.645 234.967L223.588 194.136C223.413 194.025 223.182 193.878 222.896 193.696C222.187 193.245 221.146 192.584 219.821 191.742C217.171 190.058 213.385 187.651 208.837 184.76C199.742 178.979 187.602 171.263 175.426 163.524C151.074 148.045 126.576 132.474 125.991 132.103L125.982 132.098L125.973 132.091C125.573 131.805 125.244 131.527 125.021 131.235C124.791 130.933 124.662 130.6 124.694 130.225C124.724 129.865 124.899 129.519 125.155 129.176C125.412 128.83 125.776 128.453 126.237 128.028C129.59 124.932 136.177 119.134 136.419 118.931C138.296 117.355 140.707 117.008 142.602 117.038C143.555 117.053 144.393 117.164 144.993 117.271C145.293 117.325 145.535 117.377 145.702 117.417C145.785 117.436 145.851 117.453 145.896 117.465C145.918 117.47 145.936 117.475 145.948 117.478C145.954 117.48 145.959 117.482 145.962 117.482C145.963 117.483 145.965 117.484 145.966 117.484L145.968 117.484L145.968 117.485L145.975 117.486L265.054 153.439C265.136 153.362 265.25 153.257 265.392 153.124C265.718 152.82 266.197 152.373 266.807 151.804C268.028 150.665 269.775 149.034 271.883 147.068C276.098 143.134 281.753 137.857 287.514 132.481C299.036 121.73 310.981 110.585 312.675 109.006L312.686 108.997C322.93 100.126 331.333 96.4066 337.772 95.1567C344.2 93.9087 348.645 95.1271 350.972 96.098L350.981 96.1013C350.983 96.1021 350.986 96.1036 350.989 96.1047C350.999 96.1086 351.014 96.1142 351.033 96.1215C351.071 96.1363 351.126 96.1578 351.192 96.1853C351.325 96.2402 351.507 96.3196 351.708 96.4172C352.073 96.5946 352.541 96.8556 352.86 97.1613L352.862 97.1592C352.871 97.1689 352.88 97.1795 352.889 97.1895C352.899 97.1991 352.909 97.208 352.918 97.2177L352.916 97.2198Z" stroke="white"/>
<path d="M407.646 182C444.162 265.567 405.745 363.034 321.838 399.698C271.429 421.725 216.07 416.795 171.985 391.228" stroke="white" stroke-width="28" stroke-linecap="round"/>
<path d="M107.244 305.2C103.262 302.072 98.9969 299.797 94.1625 298.091C98.4281 300.65 102.694 302.925 106.106 306.337C105.822 309.466 101.841 311.456 97.2906 311.172C97.0062 310.887 97.575 310.887 97.575 310.319C96.4375 310.034 95.0156 310.319 94.1625 309.75C94.1625 309.466 94.7312 309.466 94.4469 309.181C93.5937 308.612 92.4562 308.328 91.6031 307.759C91.6031 307.475 92.1719 307.475 92.4562 307.191C91.6031 306.622 90.4656 306.337 89.6125 305.484C89.8969 305.2 90.1812 305.484 90.4656 304.916C89.6125 304.347 88.7594 303.778 88.1906 302.925C88.475 302.641 88.7594 302.925 89.0437 302.641C88.7594 301.787 87.6219 301.219 87.3375 300.366C87.9062 300.366 88.1906 300.65 88.7594 300.081C88.1906 299.228 87.0531 298.944 86.7687 297.806C87.0531 297.522 87.6219 297.806 87.9062 297.522C87.9062 296.669 87.3375 296.1 87.0531 295.247C87.9062 294.963 89.0437 295.247 89.8969 294.962C89.8969 294.678 89.6125 294.394 89.6125 294.109C90.75 293.541 91.8875 294.109 93.025 294.394C93.3094 293.825 92.7406 293.825 93.025 293.256C93.8781 293.256 94.7312 293.825 95.8687 293.825C96.1531 293.256 95.3 293.256 95.3 292.688C96.4375 292.688 97.2906 293.256 98.1437 293.825C98.4281 293.541 98.1437 293.256 98.4281 292.688C99.2812 292.972 99.85 293.541 100.703 294.109C101.272 294.109 100.987 293.541 101.272 293.256C102.125 293.541 102.694 294.394 103.262 294.678C103.831 294.678 103.547 294.109 103.831 293.825C104.684 294.394 105.253 295.247 105.822 295.816C106.391 295.816 106.106 295.247 106.675 295.247C108.381 297.237 110.087 299.512 109.803 302.356C109.803 303.778 108.666 304.631 107.244 305.2Z" fill="white"/>
<path d="M134.828 307.191C135.112 307.475 135.397 307.475 135.681 307.475C134.828 308.328 133.691 308.328 132.553 308.897C132.553 309.181 132.837 309.181 132.837 309.466C131.984 310.034 130.562 309.75 129.709 310.034C129.425 310.319 129.994 310.603 129.709 310.887C128.572 311.172 127.434 310.887 126.012 310.603C123.453 310.034 121.462 308.897 120.609 306.337C124.022 302.641 128.287 300.366 132.553 298.091C127.719 299.797 123.453 302.072 119.472 304.916C117.766 304.347 116.912 302.925 116.912 301.219C116.912 299.228 118.619 296.1 120.325 294.678L120.894 295.531C121.747 294.962 122.316 293.825 123.169 293.541C123.453 293.825 123.169 294.394 123.737 294.394C124.306 294.109 124.875 293.256 125.728 292.972C126.012 293.256 125.728 293.541 126.297 293.825C127.15 293.825 127.719 292.972 128.856 292.688C128.856 292.972 128.572 293.256 128.856 293.825C129.709 293.256 130.562 292.688 131.7 292.688C131.7 292.972 131.131 293.256 131.416 293.825C132.269 293.825 133.122 293.256 134.259 293.256C134.259 293.541 133.975 293.825 134.259 294.394C135.397 294.109 136.534 293.825 137.672 294.109C137.672 294.394 137.387 294.678 137.387 294.962C138.241 295.247 139.378 294.963 140.231 295.247C139.947 296.1 139.094 296.669 139.094 297.522C139.378 297.806 139.947 297.522 140.231 297.806C139.947 298.944 138.809 299.228 138.525 300.081C138.809 300.65 139.378 300.081 139.662 300.366C139.378 301.219 138.241 301.787 137.672 302.641C137.956 303.209 138.241 302.925 138.525 302.925C137.956 303.778 137.103 304.062 136.534 304.916C136.819 305.2 137.103 305.2 137.387 305.484C136.819 306.337 135.681 306.622 134.828 307.191Z" fill="white"/>
<path d="M111.794 332.5C111.794 337.619 107.812 342.737 102.694 343.875C97.575 345.012 93.025 341.316 92.7406 336.197C92.4562 331.078 96.1531 325.959 100.987 324.822C106.959 323.116 111.794 326.812 111.794 332.5Z" fill="white"/>
<path d="M134.544 335.059C134.544 341.031 129.425 344.728 123.737 343.022C118.619 341.316 114.922 335.913 115.775 330.509C116.628 325.391 121.747 322.263 126.866 324.253C131.416 325.959 134.544 330.509 134.544 335.059Z" fill="white"/>
<path d="M113.784 342.169C116.628 342.169 119.472 343.306 121.463 345.581C124.875 349.278 124.591 354.681 120.894 357.809C117.197 360.938 111.225 361.222 107.528 358.094C104.684 355.819 103.547 352.975 104.116 349.278C104.969 345.581 107.528 343.591 110.941 342.453C111.794 342.453 112.647 342.169 113.784 342.169Z" fill="white"/>
<path d="M124.306 358.947C124.591 356.103 125.728 353.259 128.003 350.7C129.425 349.278 130.847 347.856 132.269 346.719C133.122 346.15 133.975 345.866 134.828 345.581C136.534 345.297 137.956 345.866 138.525 347.572C139.662 350.416 139.947 353.259 138.525 356.103C136.819 360.084 133.691 362.644 129.425 363.497C129.141 363.497 128.572 363.497 128.003 363.497C125.444 363.781 124.306 362.644 124.306 358.947Z" fill="white"/>
<path d="M87.6219 351.553C87.6219 351.553 87.6219 350.984 87.6219 350.7C87.9063 347.572 89.6125 346.434 92.7406 347.288C97.575 348.709 102.125 354.397 102.409 359.516C102.409 362.644 100.988 364.066 97.8594 363.497C93.5938 362.928 90.75 360.653 89.0438 356.956C87.9063 355.25 87.6219 353.544 87.6219 351.553Z" fill="white"/>
<path d="M114.069 323.4C111.794 323.4 109.519 323.116 107.528 321.978C103.831 319.988 103.831 317.428 106.959 315.153C111.225 312.025 116.913 312.309 120.894 315.722C121.178 316.006 121.463 316.291 121.747 316.575C123.169 318.281 122.884 319.988 121.178 321.409C119.756 322.547 118.05 322.831 116.344 323.116C115.491 323.4 114.638 323.4 114.069 323.4Z" fill="white"/>
<path d="M113.5 372.313C110.088 372.313 107.244 370.891 104.684 368.331C103.547 367.194 103.547 366.056 104.969 365.203C106.959 364.066 108.95 363.497 111.225 363.213C114.069 362.928 116.913 362.928 119.756 363.781C120.325 364.066 121.178 364.35 121.747 364.634C123.453 365.488 123.738 366.341 122.316 368.047C122.316 368.047 122.316 368.047 122.031 368.331C120.041 370.891 117.197 372.313 113.5 372.313Z" fill="white"/>
<path d="M90.1812 334.775C90.1812 337.903 89.6125 340.747 88.475 343.591C88.1906 344.444 87.9062 345.013 87.3375 345.581C86.4844 346.719 85.9156 346.719 85.0625 345.866C81.0812 341.884 81.65 334.206 86.4844 330.794C88.1906 329.372 89.3281 329.656 89.8969 331.931C89.8969 332.784 90.1812 333.922 90.1812 334.775Z" fill="white"/>
<path d="M144.497 339.041C144.497 341.316 143.644 343.875 141.937 345.866C141.084 346.719 140.516 346.719 139.662 345.866C138.809 344.728 138.241 343.306 137.956 341.884C137.103 339.041 136.819 335.913 137.103 332.784C137.103 332.216 137.387 331.363 137.672 330.794C138.241 329.656 138.809 329.372 139.947 330.225C142.791 331.931 144.497 335.059 144.497 339.041Z" fill="white"/>
<path d="M89.3281 326.528C89.0437 322.831 90.1812 319.419 93.3094 317.144C96.4375 314.869 99.85 314.3 103.547 314.869C103.547 315.722 102.978 316.291 102.694 316.859C100.703 319.419 98.1437 321.409 95.8687 323.4C94.4469 324.538 93.025 325.391 91.6031 326.244C90.4656 326.528 89.8969 327.097 89.3281 326.528Z" fill="white"/>
<path d="M137.956 326.813C137.387 327.097 136.534 326.813 135.966 326.244C133.975 325.106 131.984 323.684 130.278 322.263C128.287 320.556 126.581 318.85 124.875 317.144C124.591 316.575 124.022 316.006 124.022 315.438C125.728 314.584 131.416 314.869 134.259 317.428C137.103 319.703 138.809 324.253 137.956 326.813Z" fill="white"/>
</svg>
